# xmcd
#
# Track frame offsets: 
#        150
#        79691
#        139545
#        246034
#
# Disc length: 4099 seconds
#
# Revision: 1
# Processed by: cddbd v1.5.2PL0 Copyright (c) Steve Scherf et al.
# Submitted via: ExactAudioCopyFreeDBPlugin 1.0
#
DISCID=27100104
DTITLE=Norman Granz Jam Session - Swing Time 093 - Jam Sessions 03 - 1
DTITLE=953
DYEAR=1953
DGENRE=Jazz
TTITLE0=Jam Blues
TTITLE1=Blue Lou
TTITLE2=Just You, Just Me
TTITLE3=Jammin' For Clef
EXTD=YEAR: 2006
EXTT0=
EXTT1=
EXTT2=
EXTT3=
PLAYORDER=
